<svg width="122" height="24" viewBox="0 0 122 24" fill="none" xmlns="http://www.w3.org/2000/svg">
<path d="M10.7727 10H9.36364C9.2803 9.5947 9.13447 9.23864 8.92614 8.93182C8.72159 8.625 8.47159 8.36742 8.17614 8.15909C7.88447 7.94697 7.56061 7.78788 7.20455 7.68182C6.84849 7.57576 6.47727 7.52273 6.09091 7.52273C5.38636 7.52273 4.74811 7.70076 4.17614 8.05682C3.60795 8.41288 3.1553 8.9375 2.81818 9.63068C2.48485 10.3239 2.31818 11.1742 2.31818 12.1818C2.31818 13.1894 2.48485 14.0398 2.81818 14.733C3.1553 15.4261 3.60795 15.9508 4.17614 16.3068C4.74811 16.6629 5.38636 16.8409 6.09091 16.8409C6.47727 16.8409 6.84849 16.7879 7.20455 16.6818C7.56061 16.5758 7.88447 16.4186 8.17614 16.2102C8.47159 15.9981 8.72159 15.7386 8.92614 15.4318C9.13447 15.1212 9.2803 14.7652 9.36364 14.3636H10.7727C10.6667 14.9583 10.4735 15.4905 10.1932 15.9602C9.91288 16.4299 9.56439 16.8295 9.14773 17.1591C8.73106 17.4848 8.26326 17.733 7.74432 17.9034C7.22917 18.0739 6.67803 18.1591 6.09091 18.1591C5.09849 18.1591 4.21591 17.9167 3.44318 17.4318C2.67045 16.947 2.0625 16.2576 1.61932 15.3636C1.17614 14.4697 0.954545 13.4091 0.954545 12.1818C0.954545 10.9545 1.17614 9.89394 1.61932 9C2.0625 8.10606 2.67045 7.41667 3.44318 6.93182C4.21591 6.44697 5.09849 6.20455 6.09091 6.20455C6.67803 6.20455 7.22917 6.28977 7.74432 6.46023C8.26326 6.63068 8.73106 6.88068 9.14773 7.21023C9.56439 7.53598 9.91288 7.93371 10.1932 8.40341C10.4735 8.86932 10.6667 9.40151 10.7727 10ZM22.8679 12.1818C22.8679 13.4091 22.6463 14.4697 22.2031 15.3636C21.7599 16.2576 21.152 16.947 20.3793 17.4318C19.6065 17.9167 18.724 18.1591 17.7315 18.1591C16.7391 18.1591 15.8565 17.9167 15.0838 17.4318C14.3111 16.947 13.7031 16.2576 13.2599 15.3636C12.8168 14.4697 12.5952 13.4091 12.5952 12.1818C12.5952 10.9545 12.8168 9.89394 13.2599 9C13.7031 8.10606 14.3111 7.41667 15.0838 6.93182C15.8565 6.44697 16.7391 6.20455 17.7315 6.20455C18.724 6.20455 19.6065 6.44697 20.3793 6.93182C21.152 7.41667 21.7599 8.10606 22.2031 9C22.6463 9.89394 22.8679 10.9545 22.8679 12.1818ZM21.5043 12.1818C21.5043 11.1742 21.3357 10.3239 20.9986 9.63068C20.6652 8.9375 20.2126 8.41288 19.6406 8.05682C19.0724 7.70076 18.4361 7.52273 17.7315 7.52273C17.027 7.52273 16.3887 7.70076 15.8168 8.05682C15.2486 8.41288 14.7959 8.9375 14.4588 9.63068C14.1255 10.3239 13.9588 11.1742 13.9588 12.1818C13.9588 13.1894 14.1255 14.0398 14.4588 14.733C14.7959 15.4261 15.2486 15.9508 15.8168 16.3068C16.3887 16.6629 17.027 16.8409 17.7315 16.8409C18.4361 16.8409 19.0724 16.6629 19.6406 16.3068C20.2126 15.9508 20.6652 15.4261 20.9986 14.733C21.3357 14.0398 21.5043 13.1894 21.5043 12.1818ZM25.2372 18V6.36364H32.2145V7.61364H26.6463V11.5455H31.6918V12.7955H26.6463V18H25.2372ZM34.6278 18V6.36364H41.6051V7.61364H36.0369V11.5455H41.0824V12.7955H36.0369V18H34.6278ZM44.0185 18V6.36364H51.0412V7.61364H45.4276V11.5455H50.6776V12.7955H45.4276V16.75H51.1321V18H44.0185ZM53.581 18V6.36364H60.6037V7.61364H54.9901V11.5455H60.2401V12.7955H54.9901V16.75H60.6946V18H53.581ZM67.6435 18V6.36364H69.0526V11.5455H75.2571V6.36364H76.6662V18H75.2571V12.7955H69.0526V18H67.6435ZM89.3054 12.1818C89.3054 13.4091 89.0838 14.4697 88.6406 15.3636C88.1974 16.2576 87.5895 16.947 86.8168 17.4318C86.044 17.9167 85.1615 18.1591 84.169 18.1591C83.1766 18.1591 82.294 17.9167 81.5213 17.4318C80.7486 16.947 80.1406 16.2576 79.6974 15.3636C79.2543 14.4697 79.0327 13.4091 79.0327 12.1818C79.0327 10.9545 79.2543 9.89394 79.6974 9C80.1406 8.10606 80.7486 7.41667 81.5213 6.93182C82.294 6.44697 83.1766 6.20455 84.169 6.20455C85.1615 6.20455 86.044 6.44697 86.8168 6.93182C87.5895 7.41667 88.1974 8.10606 88.6406 9C89.0838 9.89394 89.3054 10.9545 89.3054 12.1818ZM87.9418 12.1818C87.9418 11.1742 87.7732 10.3239 87.4361 9.63068C87.1027 8.9375 86.6501 8.41288 86.0781 8.05682C85.5099 7.70076 84.8736 7.52273 84.169 7.52273C83.4645 7.52273 82.8262 7.70076 82.2543 8.05682C81.6861 8.41288 81.2334 8.9375 80.8963 9.63068C80.563 10.3239 80.3963 11.1742 80.3963 12.1818C80.3963 13.1894 80.563 14.0398 80.8963 14.733C81.2334 15.4261 81.6861 15.9508 82.2543 16.3068C82.8262 16.6629 83.4645 16.8409 84.169 16.8409C84.8736 16.8409 85.5099 16.6629 86.0781 16.3068C86.6501 15.9508 87.1027 15.4261 87.4361 14.733C87.7732 14.0398 87.9418 13.1894 87.9418 12.1818ZM99.3111 6.36364H100.72V14.0682C100.72 14.8636 100.533 15.5739 100.158 16.1989C99.7865 16.8201 99.2618 17.3106 98.5838 17.6705C97.9058 18.0265 97.1103 18.2045 96.1974 18.2045C95.2846 18.2045 94.4891 18.0265 93.8111 17.6705C93.133 17.3106 92.6065 16.8201 92.2315 16.1989C91.8603 15.5739 91.6747 14.8636 91.6747 14.0682V6.36364H93.0838V13.9545C93.0838 14.5227 93.2088 15.0284 93.4588 15.4716C93.7088 15.911 94.0649 16.2576 94.527 16.5114C94.9929 16.7614 95.5497 16.8864 96.1974 16.8864C96.8452 16.8864 97.402 16.7614 97.8679 16.5114C98.3338 16.2576 98.6899 15.911 98.9361 15.4716C99.1861 15.0284 99.3111 14.5227 99.3111 13.9545V6.36364ZM109.898 9.27273C109.83 8.69697 109.553 8.25 109.068 7.93182C108.583 7.61364 107.989 7.45455 107.284 7.45455C106.769 7.45455 106.318 7.53788 105.932 7.70455C105.549 7.87121 105.25 8.10038 105.034 8.39205C104.822 8.68371 104.716 9.01515 104.716 9.38636C104.716 9.69697 104.79 9.96401 104.938 10.1875C105.089 10.4072 105.282 10.5909 105.517 10.7386C105.752 10.8826 105.998 11.0019 106.256 11.0966C106.513 11.1875 106.75 11.2614 106.966 11.3182L108.148 11.6364C108.451 11.7159 108.788 11.8258 109.159 11.9659C109.534 12.1061 109.892 12.2973 110.233 12.5398C110.578 12.7784 110.862 13.0852 111.085 13.4602C111.309 13.8352 111.42 14.2955 111.42 14.8409C111.42 15.4697 111.256 16.0379 110.926 16.5455C110.6 17.053 110.123 17.4564 109.494 17.7557C108.869 18.0549 108.11 18.2045 107.216 18.2045C106.383 18.2045 105.661 18.0701 105.051 17.8011C104.445 17.5322 103.968 17.1572 103.619 16.6761C103.275 16.1951 103.08 15.6364 103.034 15H104.489C104.527 15.4394 104.674 15.803 104.932 16.0909C105.193 16.375 105.523 16.5871 105.92 16.7273C106.322 16.8636 106.754 16.9318 107.216 16.9318C107.754 16.9318 108.237 16.8447 108.665 16.6705C109.093 16.4924 109.432 16.2462 109.682 15.9318C109.932 15.6136 110.057 15.2424 110.057 14.8182C110.057 14.4318 109.949 14.1174 109.733 13.875C109.517 13.6326 109.233 13.4356 108.881 13.2841C108.528 13.1326 108.148 13 107.739 12.8864L106.307 12.4773C105.398 12.2159 104.678 11.8428 104.148 11.358C103.617 10.8731 103.352 10.2386 103.352 9.45455C103.352 8.80303 103.528 8.23485 103.881 7.75C104.237 7.26136 104.714 6.88258 105.312 6.61364C105.915 6.34091 106.587 6.20455 107.33 6.20455C108.08 6.20455 108.746 6.33901 109.33 6.60795C109.913 6.87311 110.375 7.23674 110.716 7.69886C111.061 8.16098 111.242 8.68561 111.261 9.27273H109.898ZM113.737 18V6.36364H120.76V7.61364H115.146V11.5455H120.396V12.7955H115.146V16.75H120.851V18H113.737Z" fill="#EEEEEE"/>
</svg>
