<svg width="120" height="123" viewBox="0 0 120 123" fill="none" xmlns="http://www.w3.org/2000/svg">
<path d="M60.0025 90.7572C58.0316 90.7572 56.4285 92.9462 56.4285 95.6362C56.4285 98.3257 58.0316 100.515 60.0025 100.515C61.9733 100.515 63.5715 98.3257 63.5715 95.6362C63.5715 92.9462 61.9733 90.7572 60.0025 90.7572ZM60.0025 101.401C57.5414 101.401 55.546 98.8145 55.546 95.6362C55.546 92.4579 57.5414 89.8718 60.0025 89.8718C62.4587 89.8718 64.4589 92.4579 64.4589 95.6362C64.4589 98.8145 62.4587 101.401 60.0025 101.401Z" fill="#EEEEEE"/>
<path d="M59.9044 99.5823C59.7279 99.5823 59.5661 99.4783 59.4925 99.3063C59.4631 99.2327 58.7719 97.4845 59.6298 95.4631C60.3309 93.8095 59.5269 92.3662 59.5171 92.352C59.3994 92.1392 59.473 91.8691 59.6838 91.7475C59.8946 91.6269 60.1691 91.7009 60.2868 91.9132C60.3309 91.9877 61.3163 93.7561 60.4437 95.8093C59.7279 97.4953 60.3064 98.9582 60.3113 98.9729C60.4044 99.1994 60.2966 99.4577 60.071 99.5499C60.0171 99.572 59.9583 99.5823 59.9044 99.5823Z" fill="#EEEEEE"/>
<path d="M59.174 34.0218C59.1005 34.0218 59.022 33.9933 58.9632 33.9355L58.0366 33.0045C57.9189 32.8893 57.9189 32.7025 58.0366 32.5873C58.1494 32.4721 58.3357 32.4721 58.4533 32.5873L59.3799 33.5183C59.4976 33.633 59.4976 33.8203 59.3799 33.9355C59.326 33.9933 59.2476 34.0218 59.174 34.0218Z" fill="#EEEEEE"/>
<path d="M60.6055 33.807C60.532 33.807 60.4535 33.7781 60.3996 33.7208L59.4681 32.7932C59.3554 32.6775 59.3554 32.4907 59.4681 32.3755C59.5858 32.2603 59.7721 32.2603 59.8848 32.3755L60.8163 33.3036C60.9291 33.4188 60.9291 33.6056 60.8163 33.7208C60.7575 33.7781 60.6791 33.807 60.6055 33.807Z" fill="#EEEEEE"/>
<path d="M62.1988 33.6796C62.1203 33.6796 62.0468 33.6511 61.988 33.5933L60.826 32.4289C60.7084 32.3137 60.7084 32.1269 60.826 32.0117C60.9388 31.896 61.1251 31.896 61.2428 32.0117L62.4047 33.1761C62.5223 33.2913 62.5223 33.4781 62.4047 33.5933C62.3458 33.6511 62.2723 33.6796 62.1988 33.6796Z" fill="#EEEEEE"/>
<path d="M63.4539 32.9876C63.3804 32.9876 63.3069 32.9587 63.248 32.9014L62.0665 31.7218C61.9537 31.6071 61.9537 31.4198 62.0665 31.3046C62.1842 31.1894 62.3705 31.1894 62.4832 31.3046L63.6648 32.4841C63.7824 32.5994 63.7824 32.7861 63.6648 32.9014C63.6059 32.9587 63.5324 32.9876 63.4539 32.9876Z" fill="#EEEEEE"/>
<path d="M64.6355 32.0124C64.5619 32.0124 64.4835 31.9835 64.4247 31.9261L63.248 30.747C63.1304 30.6313 63.1304 30.445 63.248 30.3293C63.3608 30.2141 63.5471 30.2141 63.6648 30.3293L64.8414 31.5084C64.959 31.6241 64.959 31.8109 64.8414 31.9261C64.7874 31.9835 64.709 32.0124 64.6355 32.0124Z" fill="#EEEEEE"/>
<path d="M65.5522 30.858C65.4787 30.858 65.4002 30.8295 65.3463 30.7717L64.1648 29.5921C64.052 29.4769 64.052 29.2901 64.1648 29.1749C64.2824 29.0597 64.4687 29.0597 64.5815 29.1749L65.763 30.3545C65.8758 30.4692 65.8758 30.6565 65.763 30.7717C65.7042 30.8295 65.6307 30.858 65.5522 30.858Z" fill="#EEEEEE"/>
<path d="M66.3856 29.7039C66.3072 29.7039 66.2336 29.6745 66.1748 29.6171L64.9982 28.4381C64.8805 28.3224 64.8805 28.1361 64.9982 28.0204C65.1109 27.9051 65.2972 27.9051 65.4149 28.0204L66.5915 29.1999C66.7092 29.3151 66.7092 29.5019 66.5915 29.6171C66.5327 29.6745 66.4592 29.7039 66.3856 29.7039Z" fill="#EEEEEE"/>
<path d="M66.9739 28.2848C66.9003 28.2848 66.8219 28.2564 66.763 28.199L65.5864 27.0195C65.4688 26.9043 65.4688 26.7175 65.5864 26.6023C65.6992 26.4866 65.8855 26.4866 66.0031 26.6023L67.1847 27.7813C67.2974 27.8965 67.2974 28.0833 67.1847 28.199C67.1258 28.2564 67.0474 28.2848 66.9739 28.2848Z" fill="#EEEEEE"/>
<path d="M67.2779 26.7243C67.2043 26.7243 67.1259 26.6949 67.072 26.6375L66.1111 25.6791C65.9983 25.5639 65.9983 25.3771 66.1111 25.2614C66.2287 25.1462 66.415 25.1462 66.5278 25.2614L67.4887 26.2198C67.6015 26.3355 67.6015 26.5223 67.4887 26.6375C67.4299 26.6949 67.3563 26.7243 67.2779 26.7243Z" fill="#EEEEEE"/>
<path d="M67.7584 25.5121C67.6849 25.5121 67.6064 25.4831 67.5475 25.4253L66.5915 24.4673C66.4739 24.3521 66.4739 24.1653 66.5915 24.0501C66.7043 23.9344 66.8955 23.9344 67.0083 24.0501L67.9643 25.0081C68.0819 25.1233 68.0819 25.3101 67.9643 25.4253C67.9103 25.4831 67.8319 25.5121 67.7584 25.5121Z" fill="#EEEEEE"/>
<path d="M52.9035 23.7217L53.2368 27.2334C53.5555 30.599 56.345 33.1366 59.7278 33.1366H60.2524C63.6352 33.1366 66.4198 30.599 66.7385 27.2334L67.0719 23.7217H52.9035ZM60.2524 34.3176H59.7278C55.7322 34.3176 52.4377 31.3202 52.0651 27.3442L51.668 23.1868C51.6533 23.0211 51.7072 22.8564 51.82 22.7339C51.9327 22.6108 52.0896 22.5407 52.2563 22.5407H67.7239C67.8906 22.5407 68.0475 22.6108 68.1602 22.7339C68.2681 22.8564 68.3269 23.0211 68.3073 23.1868L67.9151 27.3442C67.5376 31.3202 64.248 34.3176 60.2524 34.3176Z" fill="#EEEEEE"/>
<path d="M67.4494 29.9739H67.0817C66.7532 29.9739 66.4885 29.7097 66.4885 29.3836C66.4885 29.0571 66.7532 28.7929 67.0817 28.7929H67.4494C68.1995 28.7929 68.8319 28.0992 68.93 27.179L69.0232 26.3176C69.0379 26.1318 68.9888 25.9499 68.881 25.8298C68.8368 25.7803 68.7633 25.7214 68.6653 25.7214H67.7044C67.3808 25.7214 67.116 25.4572 67.116 25.1312C67.116 24.8051 67.3808 24.5409 67.7044 24.5409H68.6653C69.082 24.5409 69.4693 24.7184 69.7585 25.04C70.0919 25.4096 70.2488 25.9205 70.1948 26.4411L70.1017 27.303C69.9448 28.8257 68.8025 29.9739 67.4494 29.9739Z" fill="#EEEEEE"/>
<path d="M81.2208 6.33186C81.3042 6.10144 81.1816 5.8475 80.9561 5.76415C80.7208 5.68228 80.4707 5.79847 80.3874 6.02889L76.6075 16.4091C76.887 16.5115 77.1615 16.6219 77.436 16.7287L81.2208 6.33186Z" fill="#EEEEEE"/>
<path d="M49.8787 3.35932C49.8346 3.11861 49.6041 2.95976 49.3639 3.00045C49.1237 3.04261 48.9619 3.27303 49.006 3.51326L50.8984 14.2572C51.1877 14.2048 51.4769 14.1494 51.7711 14.1018L49.8787 3.35932Z" fill="#EEEEEE"/>
<path d="M45.8145 8.66735C45.7507 8.43056 45.5056 8.29083 45.2703 8.35407C45.035 8.41781 44.8928 8.66048 44.9565 8.8963L46.6528 15.2221C46.9372 15.1441 47.2166 15.0583 47.5059 14.9848L45.8145 8.66735Z" fill="#EEEEEE"/>
<path d="M56.0754 13.3909C56.0558 13.1473 55.8401 12.9659 55.595 12.9884C55.3548 13.01 55.1734 13.2247 55.193 13.4684L55.2126 13.6547C55.5019 13.6272 55.8009 13.6106 56.0951 13.588L56.0754 13.3909Z" fill="#EEEEEE"/>
<path d="M39.6176 6.02865C39.5343 5.79823 39.2793 5.68253 39.0489 5.76391C38.8185 5.84726 38.7009 6.1012 38.7842 6.33162L42.5003 16.5456C42.7798 16.4432 43.0592 16.351 43.3387 16.2534L39.6176 6.02865Z" fill="#EEEEEE"/>
<path d="M36.5339 11.9615C36.4309 11.7404 36.1711 11.6438 35.9455 11.7478C35.7249 11.8507 35.6318 12.1145 35.7347 12.3361L38.4851 18.2383C38.7498 18.1123 39.0243 17.9946 39.294 17.8735L36.5339 11.9615Z" fill="#EEEEEE"/>
<path d="M64.3608 13.5289C64.2579 13.5191 64.1647 13.5519 64.0863 13.6029C64.2677 13.6186 64.4442 13.6406 64.6256 13.6583C64.5569 13.5887 64.4638 13.5377 64.3608 13.5289Z" fill="#EEEEEE"/>
<path d="M75.0436 8.8961C75.1073 8.66029 74.97 8.41761 74.7347 8.35388C74.4945 8.28965 74.2542 8.43183 74.1905 8.66716L72.4648 15.0974C72.7541 15.1748 73.0384 15.2493 73.3228 15.3312L75.0436 8.8961Z" fill="#EEEEEE"/>
<path d="M84.2701 12.3357C84.3731 12.1141 84.275 11.8504 84.0544 11.7474C83.8338 11.644 83.569 11.7396 83.4661 11.9612L80.6128 18.084C80.8775 18.209 81.1472 18.3325 81.4119 18.462L84.2701 12.3357Z" fill="#EEEEEE"/>
<path d="M70.9988 3.51333C71.043 3.2731 70.8812 3.04268 70.641 3.00052C70.4007 2.95983 70.1703 3.11868 70.1262 3.35939L68.224 14.1499C68.5133 14.2014 68.8074 14.2544 69.0966 14.3107L70.9988 3.51333Z" fill="#EEEEEE"/>
<path d="M13.6978 23.8985C13.5115 23.7411 13.2272 23.7656 13.0703 23.9524C12.9134 24.1402 12.9379 24.4196 13.1291 24.5765L21.3458 31.4734C21.537 31.2474 21.7331 31.0273 21.9243 30.8047L13.6978 23.8985Z" fill="#EEEEEE"/>
<path d="M9.00605 39.0632C8.78544 38.9598 8.5207 39.0559 8.41774 39.277C8.31479 39.4991 8.40796 39.7623 8.63348 39.8653L12.3398 41.5939H14.4332L9.00605 39.0632Z" fill="#EEEEEE"/>
<path d="M29.9742 10.4396C29.8517 10.2268 29.582 10.1552 29.3712 10.2773C29.1604 10.3998 29.0868 10.6705 29.2094 10.8818L34.6317 20.2746C34.8866 20.126 35.1415 19.9775 35.4014 19.8334L29.9742 10.4396Z" fill="#EEEEEE"/>
<path d="M7.54997 32.5383C7.33916 32.4157 7.06953 32.4887 6.94696 32.7C6.8244 32.9118 6.89793 33.1829 7.10874 33.305L16.3354 38.6326C16.4824 38.3767 16.6246 38.1174 16.7766 37.8649L7.54997 32.5383Z" fill="#EEEEEE"/>
<path d="M90.7954 10.8819C90.918 10.6706 90.8445 10.4 90.6336 10.2774C90.4179 10.1549 90.1483 10.2279 90.0257 10.4397L84.4613 20.0777C84.7211 20.2243 84.9761 20.3738 85.2261 20.5238L90.7954 10.8819Z" fill="#EEEEEE"/>
<path d="M27.974 16.817C27.8319 16.616 27.5573 16.5674 27.3563 16.7076C27.1553 16.8479 27.1062 17.1244 27.2484 17.3249L30.9646 22.6334C31.2048 22.4628 31.4401 22.2863 31.6852 22.1201L27.974 16.817Z" fill="#EEEEEE"/>
<path d="M21.2477 16.4562C21.0908 16.2694 20.8114 16.2444 20.6251 16.4023C20.4339 16.5591 20.4094 16.8391 20.5712 17.0259L27.5083 25.297C27.7338 25.1067 27.9593 24.9155 28.1897 24.7292L21.2477 16.4562Z" fill="#EEEEEE"/>
<path d="M99.4338 17.0256C99.5907 16.8388 99.5662 16.5588 99.3799 16.4019C99.1936 16.2451 98.9142 16.2686 98.7573 16.4559L91.6191 24.9638C91.8496 25.1496 92.0751 25.3364 92.3006 25.5246L99.4338 17.0256Z" fill="#EEEEEE"/>
<path d="M60.4437 13.4312V13.4224C60.4437 13.1777 60.2476 12.9797 60.0024 12.9797C59.7573 12.9797 59.5563 13.1777 59.5563 13.4224V13.4332C59.7083 13.4322 59.8505 13.4224 60.0024 13.4224C60.1495 13.4224 60.2966 13.4302 60.4437 13.4312Z" fill="#EEEEEE"/>
<path d="M20.38 23.0851C20.2084 22.9121 19.929 22.9121 19.7574 23.0851C19.5809 23.2577 19.5809 23.5381 19.7574 23.7112L24.2922 28.2461C24.4981 28.0367 24.7188 27.8377 24.9296 27.6323L20.38 23.0851Z" fill="#EEEEEE"/>
<path d="M108.41 41.2066L108.42 41.2424L111.372 39.8653C111.592 39.7623 111.69 39.499 111.587 39.277C111.484 39.0563 111.22 38.9583 110.999 39.0632L106.361 41.2257C107.278 41.1743 108.366 41.0939 108.41 41.2066Z" fill="#EEEEEE"/>
<path d="M19.7574 101.18C19.5809 101.353 19.5809 101.633 19.7574 101.806C19.8407 101.892 19.9535 101.936 20.0662 101.936C20.1839 101.936 20.2967 101.892 20.38 101.806L24.3952 97.7934C24.1844 97.585 23.9834 97.3668 23.7824 97.1551L19.7574 101.18Z" fill="#EEEEEE"/>
<path d="M99.62 101.806C99.7083 101.892 99.8211 101.936 99.9338 101.936C100.047 101.936 100.159 101.892 100.248 101.806C100.419 101.633 100.419 101.353 100.248 101.18L96.2226 97.1546C96.0167 97.3664 95.8156 97.585 95.6097 97.7934L99.62 101.806Z" fill="#EEEEEE"/>
<path d="M59.5563 112.503V122.379C59.5563 122.624 59.7573 122.822 60.0024 122.822C60.2476 122.822 60.4437 122.624 60.4437 122.379V112.503C60.2966 112.504 60.1495 112.514 60.0024 112.514C59.8505 112.514 59.7083 112.504 59.5563 112.503Z" fill="#EEEEEE"/>
<path d="M106.876 24.5767C107.062 24.4198 107.087 24.1403 106.93 23.9526C106.773 23.7653 106.494 23.7413 106.307 23.8986L97.9287 30.9284C98.1297 31.1485 98.3209 31.3716 98.5121 31.5937L106.876 24.5767Z" fill="#EEEEEE"/>
<path d="M100.248 23.7115C100.419 23.5385 100.419 23.258 100.248 23.0855C100.076 22.9124 99.7966 22.9124 99.6201 23.0855L94.8892 27.8194C95.1049 28.0223 95.3157 28.2258 95.5265 28.4317L100.248 23.7115Z" fill="#EEEEEE"/>
<path d="M106.518 31.3018C106.714 31.1611 106.763 30.8851 106.626 30.6846C106.484 30.4855 106.209 30.436 106.008 30.5762L100.708 34.288C100.885 34.5243 101.066 34.7596 101.238 34.9974L106.518 31.3018Z" fill="#EEEEEE"/>
<path d="M112.891 33.305C113.107 33.1829 113.176 32.9118 113.053 32.7001C112.935 32.4888 112.666 32.4152 112.45 32.5383L103.189 37.885C103.346 38.136 103.508 38.3865 103.655 38.638L112.891 33.305Z" fill="#EEEEEE"/>
<path d="M92.7565 17.3246C92.8938 17.1241 92.8497 16.8476 92.6487 16.7074C92.4477 16.5662 92.1682 16.6157 92.031 16.8167L88.1383 22.3777C88.3785 22.5449 88.6237 22.7135 88.8639 22.8836L92.7565 17.3246Z" fill="#EEEEEE"/>
<path d="M13.9967 30.5764C13.7957 30.4362 13.5212 30.4847 13.379 30.6847C13.2369 30.8853 13.2859 31.1613 13.4869 31.302L18.6885 34.9446C18.8601 34.7029 19.0268 34.4617 19.2033 34.2234L13.9967 30.5764Z" fill="#EEEEEE"/>
<path d="M74.1904 116.224C74.2443 116.423 74.4209 116.552 74.617 116.552L74.7346 116.538C74.97 116.474 75.1072 116.231 75.0435 115.995L73.6119 110.64C73.3276 110.72 73.0433 110.808 72.7589 110.883L74.1904 116.224Z" fill="#EEEEEE"/>
<path d="M80.3874 118.863C80.4511 119.043 80.6227 119.154 80.8041 119.154C80.8532 119.154 80.9022 119.145 80.9561 119.128C81.1816 119.044 81.3042 118.79 81.2208 118.56L77.8332 109.26C77.5586 109.364 77.2841 109.469 77.0046 109.568L80.3874 118.863Z" fill="#EEEEEE"/>
<path d="M83.4661 112.931C83.5446 113.091 83.7015 113.186 83.8682 113.186C83.9319 113.186 83.9956 113.173 84.0545 113.144C84.2751 113.041 84.3731 112.778 84.2702 112.556L81.917 107.514C81.6522 107.642 81.3826 107.757 81.1129 107.882L83.4661 112.931Z" fill="#EEEEEE"/>
<path d="M90.0257 114.452C90.1091 114.594 90.2562 114.674 90.4131 114.674C90.4866 114.674 90.5601 114.655 90.6337 114.614C90.8445 114.492 90.918 114.221 90.7954 114.01L85.8243 105.401C85.5693 105.553 85.3144 105.696 85.0546 105.842L90.0257 114.452Z" fill="#EEEEEE"/>
<path d="M92.0309 108.075C92.1143 108.198 92.2565 108.264 92.3937 108.264C92.482 108.264 92.5702 108.238 92.6486 108.184C92.8496 108.044 92.8938 107.767 92.7565 107.567L89.5257 102.956C89.2904 103.129 89.0502 103.3 88.8051 103.469L92.0309 108.075Z" fill="#EEEEEE"/>
<path d="M54.6391 117.781C54.6195 118.024 54.796 118.239 55.0411 118.261L55.0803 118.262C55.3058 118.262 55.5019 118.089 55.5215 117.858L56.002 112.341C55.7078 112.318 55.4137 112.302 55.1195 112.274L54.6391 117.781Z" fill="#EEEEEE"/>
<path d="M49.006 121.379C48.9619 121.619 49.1237 121.849 49.3639 121.891L49.4423 121.898C49.6531 121.898 49.8395 121.748 49.8787 121.532L51.5896 111.803C51.3004 111.754 51.0112 111.701 50.7219 111.647L49.006 121.379Z" fill="#EEEEEE"/>
<path d="M64.4834 117.858C64.503 118.089 64.6942 118.262 64.9246 118.262L64.9639 118.261C65.2041 118.239 65.3854 118.024 65.3658 117.781L64.8805 112.274C64.5913 112.302 64.2922 112.318 63.998 112.341L64.4834 117.858Z" fill="#EEEEEE"/>
<path d="M44.9565 115.995C44.8928 116.231 45.035 116.474 45.2703 116.538L45.3831 116.552C45.5792 116.552 45.7605 116.423 45.8145 116.224L47.246 110.883C46.9568 110.807 46.6773 110.72 46.393 110.64L44.9565 115.995Z" fill="#EEEEEE"/>
<path d="M70.1263 121.532C70.1655 121.748 70.3518 121.898 70.5626 121.898L70.6411 121.891C70.8813 121.849 71.0431 121.619 70.9989 121.379L69.283 111.647C68.9938 111.701 68.7046 111.754 68.4104 111.803L70.1263 121.532Z" fill="#EEEEEE"/>
<path d="M98.7572 108.435C98.8455 108.539 98.968 108.593 99.0955 108.593C99.1935 108.593 99.2965 108.559 99.3799 108.489C99.5662 108.333 99.5907 108.053 99.4338 107.865L93.0016 100.2C92.781 100.393 92.5604 100.59 92.33 100.779L98.7572 108.435Z" fill="#EEEEEE"/>
<path d="M112.45 92.353C112.519 92.3932 112.597 92.4123 112.671 92.4123C112.823 92.4123 112.975 92.3329 113.053 92.1912C113.176 91.9794 113.107 91.7083 112.891 91.5862L104.116 86.5189C103.973 86.7773 103.822 87.0312 103.674 87.2867L112.45 92.353Z" fill="#EEEEEE"/>
<path d="M106.307 100.993C106.391 101.063 106.489 101.097 106.592 101.097C106.719 101.097 106.842 101.043 106.93 100.939C107.087 100.752 107.062 100.472 106.876 100.315L99.1641 93.8449C98.9778 94.0743 98.7915 94.3008 98.6003 94.5263L106.307 100.993Z" fill="#EEEEEE"/>
<path d="M106.008 94.3152C106.087 94.3691 106.175 94.3951 106.263 94.3951C106.4 94.3951 106.538 94.3294 106.626 94.2058C106.763 94.0058 106.714 93.7298 106.518 93.5896L101.812 90.2941C101.645 90.5387 101.463 90.7741 101.297 91.0157L106.008 94.3152Z" fill="#EEEEEE"/>
<path d="M7.10874 91.5862C6.89793 91.7083 6.8244 91.9794 6.94696 92.1912C7.03031 92.3329 7.17737 92.4123 7.32935 92.4123C7.40779 92.4123 7.48133 92.3932 7.54997 92.353L16.3256 87.2867C16.1785 87.0312 16.0314 86.7773 15.8843 86.5189L7.10874 91.5862Z" fill="#EEEEEE"/>
<path d="M38.7842 118.56C38.7009 118.79 38.8185 119.044 39.0489 119.128C39.0979 119.145 39.1519 119.154 39.2009 119.154C39.3823 119.154 39.549 119.043 39.6176 118.863L43.0004 109.568C42.721 109.469 42.4464 109.364 42.167 109.26L38.7842 118.56Z" fill="#EEEEEE"/>
<path d="M27.2484 107.567C27.1062 107.767 27.1553 108.044 27.3563 108.184C27.4347 108.238 27.523 108.264 27.6112 108.264C27.7485 108.264 27.8858 108.198 27.974 108.075L31.195 103.469C30.9548 103.3 30.7146 103.129 30.4743 102.956L27.2484 107.567Z" fill="#EEEEEE"/>
<path d="M20.5712 107.865C20.4094 108.053 20.4339 108.333 20.6251 108.489C20.7084 108.559 20.8064 108.593 20.9094 108.593C21.032 108.593 21.1595 108.539 21.2477 108.435L27.6701 100.78C27.4445 100.59 27.2239 100.393 27.0033 100.2L20.5712 107.865Z" fill="#EEEEEE"/>
<path d="M35.7347 112.556C35.6318 112.778 35.7249 113.041 35.9455 113.144C36.0093 113.173 36.073 113.186 36.1318 113.186C36.2985 113.186 36.4603 113.091 36.5339 112.931L38.892 107.882C38.6223 107.757 38.3478 107.642 38.083 107.514L35.7347 112.556Z" fill="#EEEEEE"/>
<path d="M13.4869 93.5896C13.2859 93.7298 13.2369 94.0058 13.379 94.2058C13.4624 94.3294 13.5996 94.3951 13.7418 94.3951C13.83 94.3951 13.9183 94.3691 13.9967 94.3152L18.7081 91.0153C18.5365 90.7741 18.36 90.5387 18.1934 90.2941L13.4869 93.5896Z" fill="#EEEEEE"/>
<path d="M13.1291 100.315C12.9379 100.472 12.9134 100.752 13.0703 100.939C13.1585 101.043 13.286 101.097 13.4135 101.097C13.5115 101.097 13.6145 101.063 13.6978 100.993L21.4046 94.5263C21.2134 94.3013 21.0222 94.0743 20.8359 93.8454L13.1291 100.315Z" fill="#EEEEEE"/>
<path d="M29.2094 114.01C29.0868 114.221 29.1604 114.492 29.3712 114.614C29.4399 114.655 29.5183 114.674 29.5918 114.674C29.7438 114.674 29.8909 114.594 29.9742 114.452L34.9454 105.842C34.6905 105.696 34.4306 105.553 34.1806 105.401L29.2094 114.01Z" fill="#EEEEEE"/>
<path d="M57.6346 9.81406C57.5267 9.81406 57.4189 9.77386 57.3306 9.69296C56.7325 9.1277 56.4384 8.22563 56.5217 7.21864C56.5805 6.53572 56.7913 5.89494 56.9923 5.27575L57.1149 4.90414C57.2571 4.45948 57.3846 3.98443 57.3944 3.52113C57.4091 3.05686 57.2865 2.64405 57.061 2.35823C56.909 2.16605 56.9384 1.88808 57.1296 1.73561C57.3208 1.58265 57.6003 1.61599 57.7522 1.8067C58.1101 2.25479 58.2964 2.87007 58.2817 3.54074C58.267 4.11532 58.1199 4.66441 57.9582 5.17133L57.8356 5.55177C57.6395 6.1489 57.4532 6.71319 57.4042 7.29414C57.3404 8.01923 57.5414 8.6752 57.9385 9.04877C58.115 9.21693 58.1248 9.49686 57.9582 9.67433C57.8699 9.76699 57.7523 9.81406 57.6346 9.81406Z" fill="#EEEEEE"/>
<path d="M60.3505 11.4536C60.2426 11.4536 60.1299 11.4139 60.0465 11.333C59.218 10.5545 58.816 9.30578 58.9337 7.90708C59.017 6.94029 59.3161 6.02449 59.6053 5.13811L59.7818 4.59441C59.9926 3.93502 60.1887 3.22856 60.2034 2.53337C60.2181 1.81368 60.0319 1.16997 59.6691 0.718934C59.5171 0.527244 59.5514 0.24878 59.7426 0.0963106C59.9338 -0.0566492 60.2132 -0.0233145 60.3652 0.167396C60.8506 0.780216 61.1104 1.62739 61.0859 2.55299C61.0712 3.35946 60.8555 4.13896 60.6251 4.8616L60.4486 5.41412C60.1593 6.2907 59.8897 7.11875 59.8162 7.98209C59.7181 9.11017 60.0269 10.0971 60.6545 10.6888C60.831 10.8565 60.8408 11.1364 60.6741 11.3144C60.5859 11.407 60.4682 11.4536 60.3505 11.4536Z" fill="#EEEEEE"/>
<path d="M62.846 9.81406C62.7382 9.81406 62.6303 9.77386 62.5469 9.69346C61.9439 9.12819 61.6498 8.22612 61.7331 7.21864C61.792 6.53572 62.0028 5.89494 62.2038 5.27575L62.3263 4.90414C62.4685 4.45948 62.596 3.98443 62.6107 3.52113C62.6205 3.05686 62.4979 2.64405 62.2724 2.35823C62.1204 2.16605 62.1499 1.88808 62.3411 1.73561C62.5372 1.58265 62.8166 1.61599 62.9637 1.8067C63.3215 2.25479 63.5079 2.87007 63.4932 3.54074C63.4834 4.11532 63.3314 4.66441 63.1696 5.17133L63.047 5.55177C62.8509 6.1489 62.6646 6.71319 62.6156 7.29414C62.5568 8.01923 62.7529 8.6752 63.15 9.04877C63.3314 9.21644 63.3363 9.49637 63.1696 9.67433C63.0813 9.76699 62.9637 9.81406 62.846 9.81406Z" fill="#EEEEEE"/>
<path d="M27.876 54.9423V57.6902H24.6501V54.7677C24.6501 52.0198 23.5568 50.3628 21.0712 50.3628C18.6298 50.3628 17.4973 52.0198 17.4973 54.7677V70.906C17.4973 73.6534 18.6298 75.3109 21.0712 75.3109C23.5568 75.3109 24.6501 73.6534 24.6501 70.906V66.9364H27.876V70.731C27.876 75.3546 25.6944 78.4084 20.983 78.4084C16.3207 78.4084 14.139 75.3546 14.139 70.731V54.9423C14.139 50.3187 16.3207 47.2653 20.983 47.2653C25.6944 47.2653 27.876 50.3187 27.876 54.9423Z" fill="#EEEEEE"/>
<path d="M34.0729 70.906C34.0729 73.697 35.2495 75.3109 37.6909 75.3109C40.1765 75.3109 41.3091 73.697 41.3091 70.906V54.7677C41.3091 52.0198 40.1765 50.3628 37.6909 50.3628C35.2495 50.3628 34.0729 52.0198 34.0729 54.7677V70.906ZM30.7097 54.9423C30.7097 50.275 33.0237 47.2653 37.6909 47.2653C42.4023 47.2653 44.7114 50.275 44.7114 54.9423V70.731C44.7114 75.3546 42.4023 78.4084 37.6909 78.4084C33.0237 78.4084 30.7097 75.3546 30.7097 70.731V54.9423Z" fill="#EEEEEE"/>
<path d="M58.365 61.7902V64.8866H51.3445V78.1024H47.9421V47.5708H60.0662V50.6677H51.3445V61.7902H58.365Z" fill="#EEEEEE"/>
<path d="M73.1953 61.7902V64.8866H66.1748V78.1024H62.7725V47.5708H74.8965V50.6677H66.1748V61.7902H73.1953Z" fill="#EEEEEE"/>
<path d="M88.4618 61.0915V64.1453H81.0001V75.0055H90.163V78.1024H77.6027V47.5708H90.163V50.6677H81.0001V61.0915H88.4618Z" fill="#EEEEEE"/>
<path d="M104.165 61.0915V64.1453H96.703V75.0055H105.866V78.1024H93.3007V47.5708H105.866V50.6677H96.703V61.0915H104.165Z" fill="#EEEEEE"/>
<path d="M117.951 85.5303H2.05413C1.69624 85.5303 1.40698 85.242 1.40698 84.8866V84.6238C1.40698 84.2688 1.69624 83.9806 2.05413 83.9806H117.951C118.304 83.9806 118.593 84.2688 118.593 84.6238V84.8866C118.593 85.242 118.304 85.5303 117.951 85.5303Z" fill="#EEEEEE"/>
<path d="M117.951 41.9817H2.05413C1.69624 41.9817 1.40698 41.6934 1.40698 41.338V41.0752C1.40698 40.7203 1.69624 40.432 2.05413 40.432H117.951C118.304 40.432 118.593 40.7203 118.593 41.0752V41.338C118.593 41.6934 118.304 41.9817 117.951 41.9817Z" fill="#EEEEEE"/>
<path d="M103.89 41.5379C95.3892 24.6505 78.3724 14.16 59.4779 14.16C40.5883 14.16 23.5666 24.6505 15.0656 41.5379L13.7468 40.8746C22.5028 23.4857 40.0246 12.6844 59.4779 12.6844C78.9313 12.6844 96.4579 23.4857 105.209 40.8746L103.89 41.5379Z" fill="#EEEEEE"/>
<path d="M59.4779 113.252C40.0246 113.252 22.4979 102.449 13.7468 85.0587L15.0656 84.3948C23.5666 101.284 40.5834 111.776 59.4779 111.776C78.3577 111.776 95.3745 101.295 103.88 84.4238L105.199 85.0881C96.4383 102.46 78.9215 113.252 59.4779 113.252Z" fill="#EEEEEE"/>
<path d="M37.0241 29.186V29.5007H36.2544V30.62H37.2006V30.9391H35.9064V27.7922H37.2006V28.1123H36.2544V29.186H37.0241Z" fill="#EEEEEE"/>
<path d="M38.1469 30.0042H38.8479L38.4949 28.1883L38.1469 30.0042ZM38.1027 30.3052L37.9802 30.9391H37.6566L38.2596 27.7922H38.7695L39.3676 30.9391H39.0195L38.897 30.3052H38.1027Z" fill="#EEEEEE"/>
<path d="M41.2305 28.5477V28.633H40.8972V28.5301C40.8972 28.2467 40.7893 28.08 40.5393 28.08C40.2844 28.08 40.1765 28.2467 40.1765 28.5257C40.1765 29.2311 41.2355 29.2988 41.2355 30.1837C41.2355 30.6607 41.005 30.9711 40.5246 30.9711C40.0441 30.9711 39.8186 30.6607 39.8186 30.1837V30.0043H40.1471V30.2019C40.1471 30.4857 40.2647 30.6514 40.5148 30.6514C40.7648 30.6514 40.8825 30.4857 40.8825 30.2019C40.8825 29.5008 39.8333 29.4331 39.8333 28.5477C39.8333 28.0624 40.0588 27.7614 40.5295 27.7614C41.005 27.7614 41.2305 28.0717 41.2305 28.5477Z" fill="#EEEEEE"/>
<path d="M42.2209 30.9391V28.1123H41.6425V27.7922H43.1524V28.1123H42.5739V30.9391H42.2209Z" fill="#EEEEEE"/>
<path d="M78.941 28.557C78.941 29.5056 77.8772 29.8468 77.8723 30.5705V30.62H78.9067V30.9391H77.5242V30.6695C77.5242 29.6532 78.593 29.4556 78.593 28.5702C78.593 28.2466 78.4851 28.076 78.2203 28.076C77.9654 28.076 77.8527 28.2604 77.8527 28.5388V28.8173H77.5242V28.5614C77.5242 28.0799 77.7448 27.7613 78.2302 27.7613C78.7204 27.7613 78.941 28.076 78.941 28.557Z" fill="#EEEEEE"/>
<path d="M79.6275 30.1979C79.6275 30.4808 79.75 30.6514 80.0001 30.6514C80.2599 30.6514 80.3727 30.4808 80.3727 30.1979V28.5345C80.3727 28.2467 80.2599 28.0761 80.0001 28.0761C79.75 28.0761 79.6275 28.2467 79.6275 28.5345V30.1979ZM79.2794 28.5526C79.2794 28.0717 79.5196 27.7614 80.0001 27.7614C80.4854 27.7614 80.7257 28.0717 80.7257 28.5526V30.1754C80.7257 30.6563 80.4854 30.9711 80.0001 30.9711C79.5196 30.9711 79.2794 30.6563 79.2794 30.1754V28.5526Z" fill="#EEEEEE"/>
<path d="M81.7453 28.3633C81.6276 28.4354 81.4756 28.4893 81.309 28.4981V28.2104C81.6472 28.1976 81.7649 28.0128 81.8482 27.7922H82.0885V30.9391H81.7453V28.3633Z" fill="#EEEEEE"/>
<path d="M82.9856 30.1979C82.9856 30.4808 83.1033 30.6514 83.3582 30.6514C83.6131 30.6514 83.7308 30.4808 83.7308 30.1979V28.5345C83.7308 28.2467 83.6131 28.0761 83.3582 28.0761C83.1033 28.0761 82.9856 28.2467 82.9856 28.5345V30.1979ZM82.6376 28.5526C82.6376 28.0717 82.8778 27.7614 83.3582 27.7614C83.8436 27.7614 84.0789 28.0717 84.0789 28.5526V30.1754C84.0789 30.6563 83.8436 30.9711 83.3582 30.9711C82.8778 30.9711 82.6376 30.6563 82.6376 30.1754V28.5526Z" fill="#EEEEEE"/>
<path d="M50.5749 106.517C50.5504 106.642 50.5356 106.705 50.5111 106.83C50.2121 106.771 50.065 106.74 49.766 106.677C49.6532 107.209 49.5943 107.475 49.4816 108.008C49.3296 107.975 49.2561 107.959 49.109 107.926C49.3836 106.698 49.5208 106.084 49.7954 104.855C50.2905 104.966 50.5357 105.018 51.0308 105.114C51.0063 105.239 50.9965 105.302 50.972 105.427C50.6141 105.357 50.4327 105.321 50.0748 105.244C49.9768 105.692 49.9326 105.916 49.8346 106.364C50.1287 106.428 50.2758 106.458 50.5749 106.517Z" fill="#EEEEEE"/>
<path d="M51.8936 106.777C52.1779 106.825 52.3643 106.763 52.4182 106.426C52.4378 106.308 52.4476 106.248 52.4623 106.129C52.5113 105.849 52.428 105.687 52.1682 105.643C52.0309 105.62 51.9623 105.608 51.825 105.584C51.7465 106.043 51.7024 106.272 51.624 106.731C51.7318 106.75 51.7857 106.76 51.8936 106.777ZM52.227 105.33C52.7221 105.412 52.8888 105.69 52.8202 106.152C52.8055 106.253 52.7957 106.304 52.781 106.405C52.732 106.747 52.5751 106.943 52.2809 106.983C52.5653 107.114 52.6437 107.361 52.5947 107.695C52.5652 107.889 52.5505 107.986 52.5211 108.179C52.4966 108.317 52.4819 108.447 52.5309 108.563C52.379 108.54 52.3005 108.528 52.1534 108.505C52.124 108.409 52.1142 108.326 52.1485 108.118C52.178 107.922 52.1975 107.824 52.227 107.629C52.2809 107.279 52.1289 107.141 51.825 107.09C51.722 107.072 51.673 107.064 51.57 107.046C51.4769 107.575 51.4328 107.84 51.3396 108.37C51.1876 108.344 51.1141 108.33 50.967 108.303C51.1926 107.065 51.3053 106.446 51.5308 105.208C51.8103 105.258 51.9475 105.283 52.227 105.33Z" fill="#EEEEEE"/>
<path d="M54.4821 107.05C54.4674 107.175 54.4626 107.238 54.4479 107.363C54.1292 107.328 53.9674 107.308 53.6487 107.267C53.5899 107.711 53.5605 107.933 53.5066 108.377C53.9086 108.429 54.1046 108.453 54.5067 108.496C54.4969 108.623 54.4871 108.686 54.4724 108.813C53.9184 108.754 53.6438 108.72 53.0898 108.643C53.2614 107.396 53.3448 106.773 53.5164 105.526C54.036 105.597 54.2959 105.629 54.8156 105.685C54.8008 105.812 54.791 105.876 54.7812 106.003C54.3988 105.962 54.2076 105.939 53.8252 105.889C53.7713 106.316 53.7468 106.529 53.688 106.955C54.0066 106.996 54.1635 107.015 54.4821 107.05Z" fill="#EEEEEE"/>
<path d="M56.6785 106.606L56.6736 106.691C56.5363 106.682 56.4677 106.677 56.3304 106.667L56.3402 106.564C56.3599 106.282 56.2618 106.108 56.0118 106.088C55.7568 106.067 55.6343 106.223 55.6049 106.5C55.546 107.203 56.6344 107.355 56.5756 108.238C56.5461 108.714 56.2765 109.01 55.7618 108.968C55.247 108.926 55.0362 108.591 55.0803 108.117C55.0852 108.045 55.0901 108.009 55.0999 107.938C55.2372 107.951 55.3058 107.957 55.4431 107.97C55.4382 108.049 55.4333 108.088 55.4235 108.167C55.3989 108.45 55.5068 108.627 55.7765 108.649C56.0461 108.67 56.1834 108.513 56.203 108.231C56.2569 107.531 55.1685 107.371 55.2519 106.49C55.3009 106.006 55.5558 105.731 56.0265 105.769C56.502 105.808 56.7129 106.13 56.6785 106.606Z" fill="#EEEEEE"/>
<path d="M57.5413 107.631C57.5119 108.197 57.5021 108.479 57.4727 109.045C57.3256 109.038 57.2472 109.034 57.0952 109.027C57.1639 107.77 57.1982 107.141 57.2668 105.884C57.409 105.892 57.4776 105.895 57.6198 105.902C57.5952 106.468 57.5805 106.751 57.556 107.316C57.8747 107.331 58.0365 107.337 58.3601 107.346C58.3748 106.781 58.3846 106.497 58.3993 105.931C58.5415 105.936 58.6101 105.937 58.7523 105.94C58.7278 107.198 58.7131 107.827 58.6885 109.086C58.5366 109.083 58.4581 109.081 58.3061 109.077C58.3257 108.51 58.3306 108.227 58.3503 107.661C58.0267 107.652 57.8649 107.646 57.5413 107.631Z" fill="#EEEEEE"/>
<path d="M60.9241 107.418C61.2134 107.411 61.3849 107.314 61.3702 106.973C61.3702 106.852 61.3654 106.793 61.3605 106.672C61.3507 106.389 61.2428 106.246 60.978 106.252C60.8359 106.256 60.7672 106.258 60.63 106.261C60.6398 106.726 60.6447 106.959 60.6545 107.425C60.7623 107.422 60.8163 107.421 60.9241 107.418ZM60.978 105.933C61.4732 105.92 61.6938 106.16 61.7134 106.627C61.7183 106.729 61.7233 106.78 61.7282 106.883C61.7429 107.229 61.6252 107.45 61.3457 107.545C61.6497 107.62 61.7723 107.848 61.787 108.185C61.7968 108.38 61.8017 108.478 61.8066 108.674C61.8164 108.814 61.8262 108.943 61.8948 109.049C61.7379 109.055 61.6644 109.058 61.5076 109.064C61.4634 108.976 61.4389 108.896 61.434 108.684C61.4242 108.487 61.4242 108.388 61.4144 108.191C61.4046 107.836 61.2232 107.73 60.9192 107.738C60.8163 107.741 60.7623 107.742 60.6594 107.744C60.6692 108.281 60.6741 108.55 60.6839 109.088C60.5368 109.091 60.4584 109.091 60.3064 109.093C60.2917 107.835 60.2868 107.206 60.2721 105.947C60.5515 105.944 60.6937 105.941 60.978 105.933Z" fill="#EEEEEE"/>
<path d="M62.7528 108.259C62.7724 108.546 62.9146 108.704 63.1842 108.685C63.4538 108.666 63.5666 108.49 63.5421 108.203C63.4931 107.539 63.4637 107.208 63.4097 106.545C63.3901 106.262 63.2577 106.102 62.9979 106.121C62.743 106.139 62.6302 106.316 62.6499 106.6C62.6891 107.263 62.7136 107.596 62.7528 108.259ZM62.2969 106.639C62.2674 106.158 62.493 105.837 62.9734 105.802C63.4637 105.768 63.7284 106.053 63.7725 106.533C63.8264 107.181 63.8559 107.505 63.9147 108.153C63.9539 108.628 63.7284 108.967 63.2038 109.004C62.6891 109.041 62.4145 108.739 62.3851 108.263C62.3508 107.613 62.3312 107.288 62.2969 106.639Z" fill="#EEEEEE"/>
<path d="M64.8952 107.88C65.1943 107.848 65.3413 107.83 65.6355 107.794C65.3953 107.091 65.2776 106.74 65.0521 106.035C64.9933 106.773 64.9639 107.142 64.8952 107.88ZM64.8805 108.185C64.8609 108.442 64.8462 108.571 64.8217 108.828C64.6844 108.843 64.6109 108.85 64.4736 108.864C64.6109 107.586 64.6697 106.947 64.7727 105.669C64.9737 105.646 65.0766 105.634 65.2776 105.609C65.6747 106.829 65.8806 107.436 66.3072 108.648C66.1552 108.669 66.0817 108.679 65.9346 108.698C65.8463 108.454 65.8071 108.332 65.7238 108.086C65.3855 108.129 65.2188 108.148 64.8805 108.185Z" fill="#EEEEEE"/>
<path d="M67.8661 105.982L67.8809 106.066C67.7485 106.09 67.6798 106.102 67.5475 106.125L67.5279 106.023C67.4789 105.744 67.3416 105.599 67.0916 105.64C66.8366 105.681 66.7582 105.863 66.7974 106.138C66.9053 106.835 68.0034 106.72 68.1603 107.592C68.2436 108.061 68.0574 108.412 67.5426 108.496C67.0278 108.579 66.7435 108.305 66.6748 107.834C66.665 107.762 66.6601 107.727 66.6503 107.656C66.7876 107.635 66.8562 107.625 66.9935 107.604C67.0033 107.682 67.0131 107.721 67.0229 107.799C67.0671 108.08 67.2141 108.225 67.4838 108.182C67.7485 108.138 67.8417 107.953 67.7975 107.674C67.6799 106.982 66.5817 107.089 66.4493 106.213C66.3807 105.733 66.5621 105.404 67.0327 105.327C67.5034 105.25 67.7828 105.513 67.8661 105.982Z" fill="#EEEEEE"/>
<path d="M69.3419 108.135C69.1164 107.027 69.0036 106.473 68.783 105.364C68.5525 105.411 68.4349 105.434 68.2045 105.477C68.18 105.352 68.1652 105.289 68.1456 105.163C68.7437 105.05 69.0428 104.989 69.6409 104.855C69.6654 104.98 69.6802 105.043 69.7096 105.167C69.4791 105.219 69.3615 105.244 69.1311 105.292C69.3664 106.399 69.4791 106.952 69.7144 108.059C69.5625 108.09 69.489 108.106 69.3419 108.135Z" fill="#EEEEEE"/>
<path d="M120 62.5985L118.593 64.007L117.186 62.5985L118.593 61.19L120 62.5985Z" fill="#EEEEEE"/>
<path d="M2.81897 62.5985L1.40705 64.007L0 62.5985L1.40705 61.19L2.81897 62.5985Z" fill="#EEEEEE"/>
</svg>
